<svg xmlns="http://www.w3.org/2000/svg" viewBox="0 0 800 430" role="img"><defs><marker id="arrow" viewBox="0 0 10 10" refX="8" refY="5" markerWidth="7" markerHeight="7" orient="auto-start-reverse"><path d="M0 0 L10 5 L0 10 z" fill="#2563eb"/></marker><linearGradient id="bg" x1="0" x2="1" y1="0" y2="1"><stop offset="0" stop-color="#f8fafc"/><stop offset="1" stop-color="#eef6ff"/></linearGradient></defs><style>.bg{fill:url(#bg)}.title{font:700 26px -apple-system,BlinkMacSystemFont,'Noto Sans KR',sans-serif;fill:#0f172a}.small{font:600 18px -apple-system,BlinkMacSystemFont,'Noto Sans KR',sans-serif;fill:#475569}.label{font:700 19px -apple-system,BlinkMacSystemFont,'Noto Sans KR',sans-serif;fill:#0f172a}.light{fill:#fff}.panel{fill:#fff;stroke:#bfdbfe;stroke-width:3}.panel.alt{fill:#ecfeff;stroke:#99f6e4}.net,.hub{fill:#0f766e}.arrow{fill:none;stroke:#2563eb;stroke-width:5;stroke-linecap:round;marker-end:url(#arrow)}.arrow.soft{stroke:#0f766e;opacity:.75}.curve{fill:none;stroke:#7c3aed;stroke-width:5;stroke-linecap:round;marker-end:url(#arrow)}.dot{fill:#2563eb}.dot2{fill:#0f766e}.cloud circle{fill:#bfdbfe;opacity:.9}.data rect{fill:#d1fae5;stroke:#0f766e;stroke-width:4}.data circle{fill:#0f766e}.data path{fill:none;stroke:#0f766e;stroke-width:5;stroke-linecap:round}.link{stroke:#94a3b8;stroke-width:3;opacity:.75}</style><rect class="bg" width="800" height="430" rx="28"/><text x="48" y="56" class="title">그림 2-2. 조건별분포를섞어전체분포만</text>
<text x="48" y="84" class="title">들기</text><g class="cloud" transform="translate(92,195)"><circle cx="0" cy="0" r="13"/><circle cx="34" cy="-28" r="10"/><circle cx="62" cy="18" r="12"/><circle cx="26" cy="34" r="9"/><circle cx="82" cy="-22" r="8"/></g><path d="M215 220 C305 132 465 132 585 220" class="arrow"/><path d="M225 260 C330 300 455 300 575 260" class="arrow soft"/><g class="data" transform="translate(666,198)"><rect x="-42" y="-42" width="84" height="84" rx="18"/><circle cx="-16" cy="-10" r="8"/><circle cx="18" cy="-12" r="8"/><path d="M-18 20 C0 34 24 22 28 8"/></g><text x="126" y="315" text-anchor="middle" class="small">noise / 조건</text><text x="400" y="128" text-anchor="middle" class="small">path + velocity</text><text x="666" y="315" text-anchor="middle" class="small">data / 전체분포</text><text x="48" y="394" class="small">조건별분포를섞어전체분포만들기도식</text></svg>
