<svg xmlns="http://www.w3.org/2000/svg" viewBox="0 0 800 430" role="img"><defs><marker id="arrow" viewBox="0 0 10 10" refX="8" refY="5" markerWidth="7" markerHeight="7" orient="auto-start-reverse"><path d="M0 0 L10 5 L0 10 z" fill="#2563eb"/></marker><linearGradient id="bg" x1="0" x2="1" y1="0" y2="1"><stop offset="0" stop-color="#f8fafc"/><stop offset="1" stop-color="#eef6ff"/></linearGradient></defs><style>.bg{fill:url(#bg)}.title{font:700 26px -apple-system,BlinkMacSystemFont,'Noto Sans KR',sans-serif;fill:#0f172a}.small{font:600 18px -apple-system,BlinkMacSystemFont,'Noto Sans KR',sans-serif;fill:#475569}.label{font:700 19px -apple-system,BlinkMacSystemFont,'Noto Sans KR',sans-serif;fill:#0f172a}.light{fill:#fff}.panel{fill:#fff;stroke:#bfdbfe;stroke-width:3}.panel.alt{fill:#ecfeff;stroke:#99f6e4}.net,.hub{fill:#0f766e}.arrow{fill:none;stroke:#2563eb;stroke-width:5;stroke-linecap:round;marker-end:url(#arrow)}.arrow.soft{stroke:#0f766e;opacity:.75}.curve{fill:none;stroke:#7c3aed;stroke-width:5;stroke-linecap:round;marker-end:url(#arrow)}.dot{fill:#2563eb}.dot2{fill:#0f766e}.cloud circle{fill:#bfdbfe;opacity:.9}.data rect{fill:#d1fae5;stroke:#0f766e;stroke-width:4}.data circle{fill:#0f766e}.data path{fill:none;stroke:#0f766e;stroke-width:5;stroke-linecap:round}.link{stroke:#94a3b8;stroke-width:3;opacity:.75}</style><rect class="bg" width="800" height="430" rx="28"/><text x="48" y="56" class="title">15 장핵심시각자료</text><circle cx="400" cy="218" r="68" class="hub"/><text x="400" y="212" text-anchor="middle" class="label light">Flow</text><text x="400" y="240" text-anchor="middle" class="label light">Matching</text><path d="M400 218 L170 120" class="link"/><rect x="92" y="92" width="156" height="56" rx="18" class="panel"/><text x="170" y="127" text-anchor="middle" class="label">Diffusion</text>
<path d="M400 218 L635 120" class="link"/><rect x="557" y="92" width="156" height="56" rx="18" class="panel"/><text x="635" y="127" text-anchor="middle" class="label">OT path</text>
<path d="M400 218 L165 315" class="link"/><rect x="87" y="287" width="156" height="56" rx="18" class="panel"/><text x="165" y="322" text-anchor="middle" class="label">Robotics</text>
<path d="M400 218 L632 315" class="link"/><rect x="554" y="287" width="156" height="56" rx="18" class="panel"/><text x="632" y="322" text-anchor="middle" class="label">Generator</text>
<path d="M400 218 L400 360" class="link"/><rect x="322" y="332" width="156" height="56" rx="18" class="panel"/><text x="400" y="367" text-anchor="middle" class="label">Manifold</text><text x="48" y="394" class="small">15장. 논문로드맵</text></svg>
